<mxfile host="app.diagrams.net" modified="2024-05-11T23:13:39.394Z" agent="Mozilla/5.0 (Macintosh; Intel Mac OS X 10_15_7) AppleWebKit/537.36 (KHTML, like Gecko) Chrome/124.0.0.0 Safari/537.36" version="24.4.0" etag="v5TKeP6jGUENt9I_1C0t" type="github">
  <diagram name="Page-1" id="J3nxVz9-9uhbtlQ17hxm">
    <mxGraphModel>
      <root>
        <mxCell id="0" />
        <mxCell id="1" parent="0" />
      </root>
    </mxGraphModel>
  </diagram>
</mxfile>
